<svg width="56" height="16" viewBox="0 0 56 16" fill="none" xmlns="http://www.w3.org/2000/svg">
<path d="M9.82456 0.466832V16H6.28427L4.18311 8.9386V16H0.805921V0.466832H4.18311L6.44737 7.46107V0.466832H9.82456ZM11.4556 0.466832H18.1908V3.57538H15.4948V6.52083H18.0181V9.47588H15.4948V12.8914H18.4594V16H11.4556V0.466832ZM27.7659 0.466832V3.57538H25.3673V16H21.3281V3.57538H18.9391V0.466832H27.7659ZM37.7056 0.466832V16H34.1653L32.0641 8.9386V16H28.687V0.466832H32.0641L34.3284 7.46107V0.466832H37.7056ZM39.3366 0.466832H46.0718V3.57538H43.3758V6.52083H45.8991V9.47588H43.3758V12.8914H46.3405V16H39.3366V0.466832ZM55.6469 0.466832V3.57538H53.2484V16H49.2092V3.57538H46.8202V0.466832H55.6469Z" fill="url(#paint0_linear)"/>
<defs>
<linearGradient id="paint0_linear" x1="0" y1="-4" x2="70.2707" y2="29.4405" gradientUnits="userSpaceOnUse">
<stop stop-color="#FF0021"/>
<stop offset="1" stop-color="#AA011A"/>
</linearGradient>
</defs>
</svg>
